<?xml version="1.0" encoding="UTF-8" standalone="no" ?>
<!DOCTYPE svg PUBLIC "-//W3C//DTD SVG 1.1//EN" "http://www.w3.org/Graphics/SVG/1.1/DTD/svg11.dtd">
<svg xmlns="http://www.w3.org/2000/svg" xmlns:xlink="http://www.w3.org/1999/xlink" version="1.1" width="1080" height="1080" viewBox="0 0 1080 1080" xml:space="preserve">
<desc>Created with Fabric.js 5.2.4</desc>
<defs>
</defs>
<g transform="matrix(1 0 0 1 540 540)" id="bf40bd07-5398-42cc-8fed-8bca6901d546"  >
</g>
<g transform="matrix(1 0 0 1 540 540)" id="6f46c2d1-533c-470c-834f-a0b79b681ab1"  >
<rect style="stroke: none; stroke-width: 1; stroke-dasharray: none; stroke-linecap: butt; stroke-dashoffset: 0; stroke-linejoin: miter; stroke-miterlimit: 4; fill: rgb(255,255,255); fill-rule: nonzero; opacity: 1; visibility: hidden;" vector-effect="non-scaling-stroke"  x="-540" y="-540" rx="0" ry="0" width="1080" height="1080" />
</g>
<g transform="matrix(5.26 0 0 5.26 540.08 540.18)"  >
<path style="stroke: none; stroke-width: 1; stroke-dasharray: none; stroke-linecap: butt; stroke-dashoffset: 0; stroke-linejoin: miter; stroke-miterlimit: 4; fill: rgb(1,0,2); fill-rule: nonzero; opacity: 1;"  transform=" translate(-102.69, -102.69)" d="M 142.828 48.544 L 142.828 42.42 C 142.828 31.637 134.053 22.851000000000003 123.259 22.851000000000003 L 118.428 22.851000000000003 L 118.428 15.446000000000002 C 118.428 6.932 111.496 0 102.974 0 C 94.46 0 87.528 6.932 87.528 15.446 L 87.528 22.851 L 82.256 22.851 C 71.473 22.851 62.687 31.637 62.687 42.42 L 62.687 48.44 C 57.29 52.387 54.08 58.70399999999999 54.08 65.386 L 54.08 184.404 C 54.08 195.974 63.495999999999995 205.39 75.066 205.39 L 130.313 205.39 C 141.89399999999998 205.39 151.31 195.974 151.31 184.404 L 151.31 65.386 C 151.31 58.768 148.139 52.491 142.828 48.544 z M 82.256 27.711 L 92.377 27.711 L 92.377 15.446 C 92.377 9.602 97.133 4.859999999999999 102.97399999999999 4.859999999999999 C 108.81799999999998 4.859999999999999 113.57099999999998 9.606 113.57099999999998 15.446 L 113.57099999999998 27.711 L 123.25899999999999 27.711 C 131.36899999999997 27.711 137.97899999999998 34.31 137.97899999999998 42.42 L 137.97899999999998 47.302 L 67.547 47.302 L 67.547 42.42 C 67.547 34.31 74.143 27.711 82.256 27.711 z M 146.461 89.471 L 146.461 112.479 L 117.85900000000001 112.479 L 117.85900000000001 117.325 L 146.461 117.325 L 146.461 138.476 L 117.85900000000001 138.476 L 117.85900000000001 143.322 L 146.461 143.322 L 146.461 166.953 L 117.85900000000001 166.953 L 117.85900000000001 171.802 L 146.461 171.802 L 146.461 184.4 C 146.461 193.297 139.21 200.541 130.31 200.541 L 75.066 200.541 C 66.169 200.541 58.925000000000004 193.301 58.925000000000004 184.4 L 58.925000000000004 65.386 C 58.925000000000004 60.114 61.527 55.172 65.875 52.147999999999996 L 139.52800000000002 52.147999999999996 C 143.86900000000003 55.172 146.46 60.114999999999995 146.46 65.386 L 146.46 84.622 L 117.858 84.622 L 117.858 89.471 L 146.461 89.471 z" stroke-linecap="round" />
</g>
<g transform="matrix(7.19 0 0 12.09 540 661.85)" id="d315fc7c-7369-4321-bcba-55f9e44fb87b"  >
<rect style="stroke: rgb(0,0,0); stroke-width: 0; stroke-dasharray: none; stroke-linecap: butt; stroke-dashoffset: 0; stroke-linejoin: miter; stroke-miterlimit: 4; fill: rgb(101,101,101); fill-rule: nonzero; opacity: 1;" vector-effect="non-scaling-stroke"  x="-33.085" y="-33.085" rx="0" ry="0" width="66.17" height="66.17" />
</g>
</svg>