<?xml version="1.0" encoding="utf-8"?>
<svg version="1.1" id="Capa_1" xmlns="http://www.w3.org/2000/svg" viewBox="0 0 205.39 205.39">
  <g>
    <path style="paint-order: fill; fill-rule: evenodd;" d="M 117.235 48.544 L 117.235 42.42 C 117.235 31.637 110.991 22.851 103.309 22.851 L 99.871 22.851 L 99.871 15.446 C 99.871 6.932 94.939 5.608 88.874 5.608 C 82.815 5.608 77.882 6.932 77.882 15.446 L 77.882 22.851 L 74.131 22.851 C 66.457 22.851 60.205 31.637 60.205 42.42 L 60.205 48.44 C 56.364 52.387 54.08 58.704 54.08 65.386 L 54.08 184.404 C 54.08 195.974 60.781 205.39 69.014 205.39 L 108.329 205.39 C 116.57 205.39 123.271 195.974 123.271 184.404 L 123.271 65.386 C 123.271 58.768 121.014 52.491 117.235 48.544 Z M 74.131 27.711 L 81.333 27.711 L 81.333 15.446 C 81.333 9.602 84.717 10.468 88.874 10.468 C 93.033 10.468 96.415 9.606 96.415 15.446 L 96.415 27.711 L 103.309 27.711 C 109.081 27.711 113.784 34.31 113.784 42.42 L 113.784 47.302 L 63.663 47.302 L 63.663 42.42 C 63.663 34.31 68.357 27.711 74.131 27.711 Z M 119.82 89.471 L 119.82 112.479 L 99.467 112.479 L 99.467 117.325 L 119.82 117.325 L 119.82 138.476 L 99.467 138.476 L 99.467 143.322 L 119.82 143.322 L 119.82 166.953 L 99.467 166.953 L 99.467 171.802 L 119.82 171.802 L 119.82 184.4 C 119.82 193.297 114.66 200.541 108.327 200.541 L 69.014 200.541 C 62.683 200.541 57.528 193.301 57.528 184.4 L 57.528 65.386 C 57.528 60.114 59.379 55.172 62.474 52.148 L 114.887 52.148 C 117.976 55.172 119.82 60.115 119.82 65.386 L 119.82 84.622 L 99.466 84.622 L 99.466 89.471 L 119.82 89.471 Z"/>
    <rect x="57.795" y="173.382" width="63.056" height="28.785" style="stroke: rgb(0, 0, 0); fill: rgb(29, 218, 255);" rx="15"/>
  </g>
</svg>